<svg width="335" height="566" viewBox="0 0 335 566" fill="none" xmlns="http://www.w3.org/2000/svg">
<g clip-path="url(#clip0_1_499)">
<path fill-rule="evenodd" clip-rule="evenodd" d="M51.6964 515.997C45.9859 515.997 41.3569 511.52 41.3569 505.997C41.3569 500.474 45.9859 495.997 51.6964 495.997C57.4069 495.997 62.0359 500.474 62.0359 505.997C67.7464 505.997 72.3754 510.474 72.3754 515.997C72.3754 521.52 67.7464 525.997 62.0359 525.997C56.3254 525.997 51.6964 521.52 51.6964 515.997ZM10.3384 555.997C4.6279 555.997 -0.00109863 551.52 -0.00109863 545.997C-0.00109863 540.474 4.6279 535.997 10.3384 535.997C16.0489 535.997 20.6779 540.474 20.6779 545.997C26.3884 545.997 31.0174 550.474 31.0174 555.997C31.0174 561.52 26.3884 565.997 20.6779 565.997C14.9674 565.997 10.3384 561.52 10.3384 555.997ZM18.61 545.997C18.61 541.579 14.9064 537.997 10.3384 537.997C5.77041 537.997 2.0668 541.579 2.0668 545.997C2.0668 550.415 5.77041 553.997 10.3384 553.997C14.9064 553.997 18.61 550.415 18.61 545.997ZM59.968 505.997C59.968 501.579 56.2644 497.997 51.6964 497.997C47.1284 497.997 43.4248 501.579 43.4248 505.997C43.4248 510.415 47.1284 513.997 51.6964 513.997C56.2644 513.997 59.968 510.415 59.968 505.997Z" fill="black"/>
<path fill-rule="evenodd" clip-rule="evenodd" d="M51.6964 433.997C45.9859 433.997 41.3569 429.52 41.3569 423.997C41.3569 418.474 45.9859 413.997 51.6964 413.997C57.4069 413.997 62.0359 418.474 62.0359 423.997C67.7464 423.997 72.3754 428.474 72.3754 433.997C72.3754 439.52 67.7464 443.997 62.0359 443.997C56.3254 443.997 51.6964 439.52 51.6964 433.997ZM10.3384 473.997C4.6279 473.997 -0.00109863 469.52 -0.00109863 463.997C-0.00109863 458.474 4.6279 453.997 10.3384 453.997C16.0489 453.997 20.6779 458.474 20.6779 463.997C26.3884 463.997 31.0174 468.474 31.0174 473.997C31.0174 479.52 26.3884 483.997 20.6779 483.997C14.9674 483.997 10.3384 479.52 10.3384 473.997ZM18.61 463.997C18.61 459.579 14.9064 455.997 10.3384 455.997C5.77041 455.997 2.0668 459.579 2.0668 463.997C2.0668 468.415 5.77041 471.997 10.3384 471.997C14.9064 471.997 18.61 468.415 18.61 463.997ZM59.968 423.997C59.968 419.579 56.2644 415.997 51.6964 415.997C47.1284 415.997 43.4248 419.579 43.4248 423.997C43.4248 428.415 47.1284 431.997 51.6964 431.997C56.2644 431.997 59.968 428.415 59.968 423.997Z" fill="black"/>
<path fill-rule="evenodd" clip-rule="evenodd" d="M51.6964 351.997C45.9859 351.997 41.3569 347.52 41.3569 341.997C41.3569 336.474 45.9859 331.997 51.6964 331.997C57.4069 331.997 62.0359 336.474 62.0359 341.997C67.7464 341.997 72.3754 346.474 72.3754 351.997C72.3754 357.52 67.7464 361.997 62.0359 361.997C56.3254 361.997 51.6964 357.52 51.6964 351.997ZM10.3384 391.997C4.6279 391.997 -0.00109863 387.52 -0.00109863 381.997C-0.00109863 376.474 4.6279 371.997 10.3384 371.997C16.0489 371.997 20.6779 376.474 20.6779 381.997C26.3884 381.997 31.0174 386.474 31.0174 391.997C31.0174 397.52 26.3884 401.997 20.6779 401.997C14.9674 401.997 10.3384 397.52 10.3384 391.997ZM18.61 381.997C18.61 377.579 14.9064 373.997 10.3384 373.997C5.77041 373.997 2.0668 377.579 2.0668 381.997C2.0668 386.415 5.77041 389.997 10.3384 389.997C14.9064 389.997 18.61 386.415 18.61 381.997ZM59.968 341.997C59.968 337.579 56.2644 333.997 51.6964 333.997C47.1284 333.997 43.4248 337.579 43.4248 341.997C43.4248 346.415 47.1284 349.997 51.6964 349.997C56.2644 349.997 59.968 346.415 59.968 341.997Z" fill="black"/>
<path fill-rule="evenodd" clip-rule="evenodd" d="M51.6964 269.997C45.9859 269.997 41.3569 265.52 41.3569 259.997C41.3569 254.474 45.9859 249.997 51.6964 249.997C57.4069 249.997 62.0359 254.474 62.0359 259.997C67.7464 259.997 72.3754 264.474 72.3754 269.997C72.3754 275.52 67.7464 279.997 62.0359 279.997C56.3254 279.997 51.6964 275.52 51.6964 269.997ZM10.3384 309.997C4.6279 309.997 -0.00109863 305.52 -0.00109863 299.997C-0.00109863 294.474 4.6279 289.997 10.3384 289.997C16.0489 289.997 20.6779 294.474 20.6779 299.997C26.3884 299.997 31.0174 304.474 31.0174 309.997C31.0174 315.52 26.3884 319.997 20.6779 319.997C14.9674 319.997 10.3384 315.52 10.3384 309.997ZM18.61 299.997C18.61 295.579 14.9064 291.997 10.3384 291.997C5.77041 291.997 2.0668 295.579 2.0668 299.997C2.0668 304.415 5.77041 307.997 10.3384 307.997C14.9064 307.997 18.61 304.415 18.61 299.997ZM59.968 259.997C59.968 255.579 56.2644 251.997 51.6964 251.997C47.1284 251.997 43.4248 255.579 43.4248 259.997C43.4248 264.415 47.1284 267.997 51.6964 267.997C56.2644 267.997 59.968 264.415 59.968 259.997Z" fill="black"/>
<path fill-rule="evenodd" clip-rule="evenodd" d="M51.6964 187.997C45.9859 187.997 41.3569 183.52 41.3569 177.997C41.3569 172.474 45.9859 167.997 51.6964 167.997C57.4069 167.997 62.0359 172.474 62.0359 177.997C67.7464 177.997 72.3754 182.474 72.3754 187.997C72.3754 193.52 67.7464 197.997 62.0359 197.997C56.3254 197.997 51.6964 193.52 51.6964 187.997ZM10.3384 227.997C4.6279 227.997 -0.00109863 223.52 -0.00109863 217.997C-0.00109863 212.474 4.6279 207.997 10.3384 207.997C16.0489 207.997 20.6779 212.474 20.6779 217.997C26.3884 217.997 31.0174 222.474 31.0174 227.997C31.0174 233.52 26.3884 237.997 20.6779 237.997C14.9674 237.997 10.3384 233.52 10.3384 227.997ZM18.61 217.997C18.61 213.579 14.9064 209.997 10.3384 209.997C5.77041 209.997 2.0668 213.579 2.0668 217.997C2.0668 222.415 5.77041 225.997 10.3384 225.997C14.9064 225.997 18.61 222.415 18.61 217.997ZM59.968 177.997C59.968 173.579 56.2644 169.997 51.6964 169.997C47.1284 169.997 43.4248 173.579 43.4248 177.997C43.4248 182.415 47.1284 185.997 51.6964 185.997C56.2644 185.997 59.968 182.415 59.968 177.997Z" fill="black"/>
<path fill-rule="evenodd" clip-rule="evenodd" d="M51.6964 105.997C45.9859 105.997 41.3569 101.52 41.3569 95.9966C41.3569 90.4736 45.9859 85.9966 51.6964 85.9966C57.4069 85.9966 62.0359 90.4736 62.0359 95.9966C67.7464 95.9966 72.3754 100.474 72.3754 105.997C72.3754 111.52 67.7464 115.997 62.0359 115.997C56.3254 115.997 51.6964 111.52 51.6964 105.997ZM10.3384 145.997C4.6279 145.997 -0.00109863 141.52 -0.00109863 135.997C-0.00109863 130.474 4.6279 125.997 10.3384 125.997C16.0489 125.997 20.6779 130.474 20.6779 135.997C26.3884 135.997 31.0174 140.474 31.0174 145.997C31.0174 151.52 26.3884 155.997 20.6779 155.997C14.9674 155.997 10.3384 151.52 10.3384 145.997ZM18.61 135.997C18.61 131.579 14.9064 127.997 10.3384 127.997C5.77041 127.997 2.0668 131.579 2.0668 135.997C2.0668 140.415 5.77041 143.997 10.3384 143.997C14.9064 143.997 18.61 140.415 18.61 135.997ZM59.968 95.9966C59.968 91.5786 56.2644 87.9966 51.6964 87.9966C47.1284 87.9966 43.4248 91.5786 43.4248 95.9966C43.4248 100.415 47.1284 103.997 51.6964 103.997C56.2644 103.997 59.968 100.415 59.968 95.9966Z" fill="black"/>
<path fill-rule="evenodd" clip-rule="evenodd" d="M136.48 515.997C130.77 515.997 126.141 511.52 126.141 505.997C126.141 500.474 130.77 495.997 136.48 495.997C142.191 495.997 146.82 500.474 146.82 505.997C152.53 505.997 157.159 510.474 157.159 515.997C157.159 521.52 152.53 525.997 146.82 525.997C141.109 525.997 136.48 521.52 136.48 515.997ZM95.1223 555.997C89.4118 555.997 84.7828 551.52 84.7828 545.997C84.7828 540.474 89.4118 535.997 95.1223 535.997C100.833 535.997 105.462 540.474 105.462 545.997C111.172 545.997 115.801 550.474 115.801 555.997C115.801 561.52 111.172 565.997 105.462 565.997C99.7513 565.997 95.1223 561.52 95.1223 555.997ZM103.394 545.997C103.394 541.579 99.6903 537.997 95.1223 537.997C90.5543 537.997 86.8507 541.579 86.8507 545.997C86.8507 550.415 90.5543 553.997 95.1223 553.997C99.6903 553.997 103.394 550.415 103.394 545.997ZM144.752 505.997C144.752 501.579 141.048 497.997 136.48 497.997C131.912 497.997 128.209 501.579 128.209 505.997C128.209 510.415 131.912 513.997 136.48 513.997C141.048 513.997 144.752 510.415 144.752 505.997Z" fill="black"/>
<path fill-rule="evenodd" clip-rule="evenodd" d="M136.48 433.997C130.77 433.997 126.141 429.52 126.141 423.997C126.141 418.474 130.77 413.997 136.48 413.997C142.191 413.997 146.82 418.474 146.82 423.997C152.53 423.997 157.159 428.474 157.159 433.997C157.159 439.52 152.53 443.997 146.82 443.997C141.109 443.997 136.48 439.52 136.48 433.997ZM95.1223 473.997C89.4118 473.997 84.7828 469.52 84.7828 463.997C84.7828 458.474 89.4118 453.997 95.1223 453.997C100.833 453.997 105.462 458.474 105.462 463.997C111.172 463.997 115.801 468.474 115.801 473.997C115.801 479.52 111.172 483.997 105.462 483.997C99.7513 483.997 95.1223 479.52 95.1223 473.997ZM103.394 463.997C103.394 459.579 99.6903 455.997 95.1223 455.997C90.5543 455.997 86.8507 459.579 86.8507 463.997C86.8507 468.415 90.5543 471.997 95.1223 471.997C99.6903 471.997 103.394 468.415 103.394 463.997ZM144.752 423.997C144.752 419.579 141.048 415.997 136.48 415.997C131.912 415.997 128.209 419.579 128.209 423.997C128.209 428.415 131.912 431.997 136.48 431.997C141.048 431.997 144.752 428.415 144.752 423.997Z" fill="black"/>
<path fill-rule="evenodd" clip-rule="evenodd" d="M136.48 351.997C130.77 351.997 126.141 347.52 126.141 341.997C126.141 336.474 130.77 331.997 136.48 331.997C142.191 331.997 146.82 336.474 146.82 341.997C152.53 341.997 157.159 346.474 157.159 351.997C157.159 357.52 152.53 361.997 146.82 361.997C141.109 361.997 136.48 357.52 136.48 351.997ZM95.1223 391.997C89.4118 391.997 84.7828 387.52 84.7828 381.997C84.7828 376.474 89.4118 371.997 95.1223 371.997C100.833 371.997 105.462 376.474 105.462 381.997C111.172 381.997 115.801 386.474 115.801 391.997C115.801 397.52 111.172 401.997 105.462 401.997C99.7513 401.997 95.1223 397.52 95.1223 391.997ZM103.394 381.997C103.394 377.579 99.6903 373.997 95.1223 373.997C90.5543 373.997 86.8507 377.579 86.8507 381.997C86.8507 386.415 90.5543 389.997 95.1223 389.997C99.6903 389.997 103.394 386.415 103.394 381.997ZM144.752 341.997C144.752 337.579 141.048 333.997 136.48 333.997C131.912 333.997 128.209 337.579 128.209 341.997C128.209 346.415 131.912 349.997 136.48 349.997C141.048 349.997 144.752 346.415 144.752 341.997Z" fill="black"/>
<path fill-rule="evenodd" clip-rule="evenodd" d="M136.48 269.997C130.77 269.997 126.141 265.52 126.141 259.997C126.141 254.474 130.77 249.997 136.48 249.997C142.191 249.997 146.82 254.474 146.82 259.997C152.53 259.997 157.159 264.474 157.159 269.997C157.159 275.52 152.53 279.997 146.82 279.997C141.109 279.997 136.48 275.52 136.48 269.997ZM95.1223 309.997C89.4118 309.997 84.7828 305.52 84.7828 299.997C84.7828 294.474 89.4118 289.997 95.1223 289.997C100.833 289.997 105.462 294.474 105.462 299.997C111.172 299.997 115.801 304.474 115.801 309.997C115.801 315.52 111.172 319.997 105.462 319.997C99.7513 319.997 95.1223 315.52 95.1223 309.997ZM103.394 299.997C103.394 295.579 99.6903 291.997 95.1223 291.997C90.5543 291.997 86.8507 295.579 86.8507 299.997C86.8507 304.415 90.5543 307.997 95.1223 307.997C99.6903 307.997 103.394 304.415 103.394 299.997ZM144.752 259.997C144.752 255.579 141.048 251.997 136.48 251.997C131.912 251.997 128.209 255.579 128.209 259.997C128.209 264.415 131.912 267.997 136.48 267.997C141.048 267.997 144.752 264.415 144.752 259.997Z" fill="black"/>
<path fill-rule="evenodd" clip-rule="evenodd" d="M136.48 187.997C130.77 187.997 126.141 183.52 126.141 177.997C126.141 172.474 130.77 167.997 136.48 167.997C142.191 167.997 146.82 172.474 146.82 177.997C152.53 177.997 157.159 182.474 157.159 187.997C157.159 193.52 152.53 197.997 146.82 197.997C141.109 197.997 136.48 193.52 136.48 187.997ZM95.1223 227.997C89.4118 227.997 84.7828 223.52 84.7828 217.997C84.7828 212.474 89.4118 207.997 95.1223 207.997C100.833 207.997 105.462 212.474 105.462 217.997C111.172 217.997 115.801 222.474 115.801 227.997C115.801 233.52 111.172 237.997 105.462 237.997C99.7513 237.997 95.1223 233.52 95.1223 227.997ZM103.394 217.997C103.394 213.579 99.6903 209.997 95.1223 209.997C90.5543 209.997 86.8507 213.579 86.8507 217.997C86.8507 222.415 90.5543 225.997 95.1223 225.997C99.6903 225.997 103.394 222.415 103.394 217.997ZM144.752 177.997C144.752 173.579 141.048 169.997 136.48 169.997C131.912 169.997 128.209 173.579 128.209 177.997C128.209 182.415 131.912 185.997 136.48 185.997C141.048 185.997 144.752 182.415 144.752 177.997Z" fill="black"/>
<path fill-rule="evenodd" clip-rule="evenodd" d="M136.48 105.997C130.77 105.997 126.141 101.52 126.141 95.9966C126.141 90.4736 130.77 85.9966 136.48 85.9966C142.191 85.9966 146.82 90.4736 146.82 95.9966C152.53 95.9966 157.159 100.474 157.159 105.997C157.159 111.52 152.53 115.997 146.82 115.997C141.109 115.997 136.48 111.52 136.48 105.997ZM95.1223 145.997C89.4118 145.997 84.7828 141.52 84.7828 135.997C84.7828 130.474 89.4118 125.997 95.1223 125.997C100.833 125.997 105.462 130.474 105.462 135.997C111.172 135.997 115.801 140.474 115.801 145.997C115.801 151.52 111.172 155.997 105.462 155.997C99.7513 155.997 95.1223 151.52 95.1223 145.997ZM103.394 135.997C103.394 131.579 99.6903 127.997 95.1223 127.997C90.5543 127.997 86.8507 131.579 86.8507 135.997C86.8507 140.415 90.5543 143.997 95.1223 143.997C99.6903 143.997 103.394 140.415 103.394 135.997ZM144.752 95.9966C144.752 91.5786 141.048 87.9966 136.48 87.9966C131.912 87.9966 128.209 91.5786 128.209 95.9966C128.209 100.415 131.912 103.997 136.48 103.997C141.048 103.997 144.752 100.415 144.752 95.9966Z" fill="black"/>
<path fill-rule="evenodd" clip-rule="evenodd" d="M221.264 515.997C215.554 515.997 210.925 511.52 210.925 505.997C210.925 500.474 215.554 495.997 221.264 495.997C226.975 495.997 231.604 500.474 231.604 505.997C237.314 505.997 241.943 510.474 241.943 515.997C241.943 521.52 237.314 525.997 231.604 525.997C225.893 525.997 221.264 521.52 221.264 515.997ZM179.906 555.997C174.196 555.997 169.567 551.52 169.567 545.997C169.567 540.474 174.196 535.997 179.906 535.997C185.617 535.997 190.246 540.474 190.246 545.997C195.956 545.997 200.585 550.474 200.585 555.997C200.585 561.52 195.956 565.997 190.246 565.997C184.535 565.997 179.906 561.52 179.906 555.997ZM188.178 545.997C188.178 541.579 184.474 537.997 179.906 537.997C175.338 537.997 171.635 541.579 171.635 545.997C171.635 550.415 175.338 553.997 179.906 553.997C184.474 553.997 188.178 550.415 188.178 545.997ZM229.536 505.997C229.536 501.579 225.832 497.997 221.264 497.997C216.696 497.997 212.993 501.579 212.993 505.997C212.993 510.415 216.696 513.997 221.264 513.997C225.832 513.997 229.536 510.415 229.536 505.997Z" fill="black"/>
<path fill-rule="evenodd" clip-rule="evenodd" d="M221.264 433.997C215.554 433.997 210.925 429.52 210.925 423.997C210.925 418.474 215.554 413.997 221.264 413.997C226.975 413.997 231.604 418.474 231.604 423.997C237.314 423.997 241.943 428.474 241.943 433.997C241.943 439.52 237.314 443.997 231.604 443.997C225.893 443.997 221.264 439.52 221.264 433.997ZM179.906 473.997C174.196 473.997 169.567 469.52 169.567 463.997C169.567 458.474 174.196 453.997 179.906 453.997C185.617 453.997 190.246 458.474 190.246 463.997C195.956 463.997 200.585 468.474 200.585 473.997C200.585 479.52 195.956 483.997 190.246 483.997C184.535 483.997 179.906 479.52 179.906 473.997ZM188.178 463.997C188.178 459.579 184.474 455.997 179.906 455.997C175.338 455.997 171.635 459.579 171.635 463.997C171.635 468.415 175.338 471.997 179.906 471.997C184.474 471.997 188.178 468.415 188.178 463.997ZM229.536 423.997C229.536 419.579 225.832 415.997 221.264 415.997C216.696 415.997 212.993 419.579 212.993 423.997C212.993 428.415 216.696 431.997 221.264 431.997C225.832 431.997 229.536 428.415 229.536 423.997Z" fill="black"/>
<path fill-rule="evenodd" clip-rule="evenodd" d="M221.264 351.997C215.554 351.997 210.925 347.52 210.925 341.997C210.925 336.474 215.554 331.997 221.264 331.997C226.975 331.997 231.604 336.474 231.604 341.997C237.314 341.997 241.943 346.474 241.943 351.997C241.943 357.52 237.314 361.997 231.604 361.997C225.893 361.997 221.264 357.52 221.264 351.997ZM179.906 391.997C174.196 391.997 169.567 387.52 169.567 381.997C169.567 376.474 174.196 371.997 179.906 371.997C185.617 371.997 190.246 376.474 190.246 381.997C195.956 381.997 200.585 386.474 200.585 391.997C200.585 397.52 195.956 401.997 190.246 401.997C184.535 401.997 179.906 397.52 179.906 391.997ZM188.178 381.997C188.178 377.579 184.474 373.997 179.906 373.997C175.338 373.997 171.635 377.579 171.635 381.997C171.635 386.415 175.338 389.997 179.906 389.997C184.474 389.997 188.178 386.415 188.178 381.997ZM229.536 341.997C229.536 337.579 225.832 333.997 221.264 333.997C216.696 333.997 212.993 337.579 212.993 341.997C212.993 346.415 216.696 349.997 221.264 349.997C225.832 349.997 229.536 346.415 229.536 341.997Z" fill="black"/>
<path fill-rule="evenodd" clip-rule="evenodd" d="M221.264 269.997C215.554 269.997 210.925 265.52 210.925 259.997C210.925 254.474 215.554 249.997 221.264 249.997C226.975 249.997 231.604 254.474 231.604 259.997C237.314 259.997 241.943 264.474 241.943 269.997C241.943 275.52 237.314 279.997 231.604 279.997C225.893 279.997 221.264 275.52 221.264 269.997ZM179.906 309.997C174.196 309.997 169.567 305.52 169.567 299.997C169.567 294.474 174.196 289.997 179.906 289.997C185.617 289.997 190.246 294.474 190.246 299.997C195.956 299.997 200.585 304.474 200.585 309.997C200.585 315.52 195.956 319.997 190.246 319.997C184.535 319.997 179.906 315.52 179.906 309.997ZM188.178 299.997C188.178 295.579 184.474 291.997 179.906 291.997C175.338 291.997 171.635 295.579 171.635 299.997C171.635 304.415 175.338 307.997 179.906 307.997C184.474 307.997 188.178 304.415 188.178 299.997ZM229.536 259.997C229.536 255.579 225.832 251.997 221.264 251.997C216.696 251.997 212.993 255.579 212.993 259.997C212.993 264.415 216.696 267.997 221.264 267.997C225.832 267.997 229.536 264.415 229.536 259.997Z" fill="black"/>
<path fill-rule="evenodd" clip-rule="evenodd" d="M221.264 187.997C215.554 187.997 210.925 183.52 210.925 177.997C210.925 172.474 215.554 167.997 221.264 167.997C226.975 167.997 231.604 172.474 231.604 177.997C237.314 177.997 241.943 182.474 241.943 187.997C241.943 193.52 237.314 197.997 231.604 197.997C225.893 197.997 221.264 193.52 221.264 187.997ZM179.906 227.997C174.196 227.997 169.567 223.52 169.567 217.997C169.567 212.474 174.196 207.997 179.906 207.997C185.617 207.997 190.246 212.474 190.246 217.997C195.956 217.997 200.585 222.474 200.585 227.997C200.585 233.52 195.956 237.997 190.246 237.997C184.535 237.997 179.906 233.52 179.906 227.997ZM188.178 217.997C188.178 213.579 184.474 209.997 179.906 209.997C175.338 209.997 171.635 213.579 171.635 217.997C171.635 222.415 175.338 225.997 179.906 225.997C184.474 225.997 188.178 222.415 188.178 217.997ZM229.536 177.997C229.536 173.579 225.832 169.997 221.264 169.997C216.696 169.997 212.993 173.579 212.993 177.997C212.993 182.415 216.696 185.997 221.264 185.997C225.832 185.997 229.536 182.415 229.536 177.997Z" fill="black"/>
<path fill-rule="evenodd" clip-rule="evenodd" d="M221.264 105.997C215.554 105.997 210.925 101.52 210.925 95.9966C210.925 90.4736 215.554 85.9966 221.264 85.9966C226.975 85.9966 231.604 90.4736 231.604 95.9966C237.314 95.9966 241.943 100.474 241.943 105.997C241.943 111.52 237.314 115.997 231.604 115.997C225.893 115.997 221.264 111.52 221.264 105.997ZM179.906 145.997C174.196 145.997 169.567 141.52 169.567 135.997C169.567 130.474 174.196 125.997 179.906 125.997C185.617 125.997 190.246 130.474 190.246 135.997C195.956 135.997 200.585 140.474 200.585 145.997C200.585 151.52 195.956 155.997 190.246 155.997C184.535 155.997 179.906 151.52 179.906 145.997ZM188.178 135.997C188.178 131.579 184.474 127.997 179.906 127.997C175.338 127.997 171.635 131.579 171.635 135.997C171.635 140.415 175.338 143.997 179.906 143.997C184.474 143.997 188.178 140.415 188.178 135.997ZM229.536 95.9966C229.536 91.5786 225.832 87.9966 221.264 87.9966C216.696 87.9966 212.993 91.5786 212.993 95.9966C212.993 100.415 216.696 103.997 221.264 103.997C225.832 103.997 229.536 100.415 229.536 95.9966Z" fill="black"/>
<path fill-rule="evenodd" clip-rule="evenodd" d="M306.048 515.997C300.338 515.997 295.709 511.52 295.709 505.997C295.709 500.474 300.338 495.997 306.048 495.997C311.759 495.997 316.388 500.474 316.388 505.997C322.098 505.997 326.727 510.474 326.727 515.997C326.727 521.52 322.098 525.997 316.388 525.997C310.677 525.997 306.048 521.52 306.048 515.997ZM264.69 555.997C258.98 555.997 254.351 551.52 254.351 545.997C254.351 540.474 258.98 535.997 264.69 535.997C270.401 535.997 275.03 540.474 275.03 545.997C280.74 545.997 285.369 550.474 285.369 555.997C285.369 561.52 280.74 565.997 275.03 565.997C269.319 565.997 264.69 561.52 264.69 555.997ZM272.962 545.997C272.962 541.579 269.258 537.997 264.69 537.997C260.122 537.997 256.419 541.579 256.419 545.997C256.419 550.415 260.122 553.997 264.69 553.997C269.258 553.997 272.962 550.415 272.962 545.997ZM314.32 505.997C314.32 501.579 310.616 497.997 306.048 497.997C301.48 497.997 297.777 501.579 297.777 505.997C297.777 510.415 301.48 513.997 306.048 513.997C310.616 513.997 314.32 510.415 314.32 505.997Z" fill="black"/>
<path fill-rule="evenodd" clip-rule="evenodd" d="M306.048 433.997C300.338 433.997 295.709 429.52 295.709 423.997C295.709 418.474 300.338 413.997 306.048 413.997C311.759 413.997 316.388 418.474 316.388 423.997C322.098 423.997 326.727 428.474 326.727 433.997C326.727 439.52 322.098 443.997 316.388 443.997C310.677 443.997 306.048 439.52 306.048 433.997ZM264.69 473.997C258.98 473.997 254.351 469.52 254.351 463.997C254.351 458.474 258.98 453.997 264.69 453.997C270.401 453.997 275.03 458.474 275.03 463.997C280.74 463.997 285.369 468.474 285.369 473.997C285.369 479.52 280.74 483.997 275.03 483.997C269.319 483.997 264.69 479.52 264.69 473.997ZM272.962 463.997C272.962 459.579 269.258 455.997 264.69 455.997C260.122 455.997 256.419 459.579 256.419 463.997C256.419 468.415 260.122 471.997 264.69 471.997C269.258 471.997 272.962 468.415 272.962 463.997ZM314.32 423.997C314.32 419.579 310.616 415.997 306.048 415.997C301.48 415.997 297.777 419.579 297.777 423.997C297.777 428.415 301.48 431.997 306.048 431.997C310.616 431.997 314.32 428.415 314.32 423.997Z" fill="black"/>
<path fill-rule="evenodd" clip-rule="evenodd" d="M306.048 351.997C300.338 351.997 295.709 347.52 295.709 341.997C295.709 336.474 300.338 331.997 306.048 331.997C311.759 331.997 316.388 336.474 316.388 341.997C322.098 341.997 326.727 346.474 326.727 351.997C326.727 357.52 322.098 361.997 316.388 361.997C310.677 361.997 306.048 357.52 306.048 351.997ZM264.69 391.997C258.98 391.997 254.351 387.52 254.351 381.997C254.351 376.474 258.98 371.997 264.69 371.997C270.401 371.997 275.03 376.474 275.03 381.997C280.74 381.997 285.369 386.474 285.369 391.997C285.369 397.52 280.74 401.997 275.03 401.997C269.319 401.997 264.69 397.52 264.69 391.997ZM272.962 381.997C272.962 377.579 269.258 373.997 264.69 373.997C260.122 373.997 256.419 377.579 256.419 381.997C256.419 386.415 260.122 389.997 264.69 389.997C269.258 389.997 272.962 386.415 272.962 381.997ZM314.32 341.997C314.32 337.579 310.616 333.997 306.048 333.997C301.48 333.997 297.777 337.579 297.777 341.997C297.777 346.415 301.48 349.997 306.048 349.997C310.616 349.997 314.32 346.415 314.32 341.997Z" fill="black"/>
<path fill-rule="evenodd" clip-rule="evenodd" d="M306.048 269.997C300.338 269.997 295.709 265.52 295.709 259.997C295.709 254.474 300.338 249.997 306.048 249.997C311.759 249.997 316.388 254.474 316.388 259.997C322.098 259.997 326.727 264.474 326.727 269.997C326.727 275.52 322.098 279.997 316.388 279.997C310.677 279.997 306.048 275.52 306.048 269.997ZM264.69 309.997C258.98 309.997 254.351 305.52 254.351 299.997C254.351 294.474 258.98 289.997 264.69 289.997C270.401 289.997 275.03 294.474 275.03 299.997C280.74 299.997 285.369 304.474 285.369 309.997C285.369 315.52 280.74 319.997 275.03 319.997C269.319 319.997 264.69 315.52 264.69 309.997ZM272.962 299.997C272.962 295.579 269.258 291.997 264.69 291.997C260.122 291.997 256.419 295.579 256.419 299.997C256.419 304.415 260.122 307.997 264.69 307.997C269.258 307.997 272.962 304.415 272.962 299.997ZM314.32 259.997C314.32 255.579 310.616 251.997 306.048 251.997C301.48 251.997 297.777 255.579 297.777 259.997C297.777 264.415 301.48 267.997 306.048 267.997C310.616 267.997 314.32 264.415 314.32 259.997Z" fill="black"/>
<path fill-rule="evenodd" clip-rule="evenodd" d="M306.048 187.997C300.338 187.997 295.709 183.52 295.709 177.997C295.709 172.474 300.338 167.997 306.048 167.997C311.759 167.997 316.388 172.474 316.388 177.997C322.098 177.997 326.727 182.474 326.727 187.997C326.727 193.52 322.098 197.997 316.388 197.997C310.677 197.997 306.048 193.52 306.048 187.997ZM264.69 227.997C258.98 227.997 254.351 223.52 254.351 217.997C254.351 212.474 258.98 207.997 264.69 207.997C270.401 207.997 275.03 212.474 275.03 217.997C280.74 217.997 285.369 222.474 285.369 227.997C285.369 233.52 280.74 237.997 275.03 237.997C269.319 237.997 264.69 233.52 264.69 227.997ZM272.962 217.997C272.962 213.579 269.258 209.997 264.69 209.997C260.122 209.997 256.419 213.579 256.419 217.997C256.419 222.415 260.122 225.997 264.69 225.997C269.258 225.997 272.962 222.415 272.962 217.997ZM314.32 177.997C314.32 173.579 310.616 169.997 306.048 169.997C301.48 169.997 297.777 173.579 297.777 177.997C297.777 182.415 301.48 185.997 306.048 185.997C310.616 185.997 314.32 182.415 314.32 177.997Z" fill="black"/>
<path fill-rule="evenodd" clip-rule="evenodd" d="M306.048 105.997C300.338 105.997 295.709 101.52 295.709 95.9966C295.709 90.4736 300.338 85.9966 306.048 85.9966C311.759 85.9966 316.388 90.4736 316.388 95.9966C322.098 95.9966 326.727 100.474 326.727 105.997C326.727 111.52 322.098 115.997 316.388 115.997C310.677 115.997 306.048 111.52 306.048 105.997ZM264.69 145.997C258.98 145.997 254.351 141.52 254.351 135.997C254.351 130.474 258.98 125.997 264.69 125.997C270.401 125.997 275.03 130.474 275.03 135.997C280.74 135.997 285.369 140.474 285.369 145.997C285.369 151.52 280.74 155.997 275.03 155.997C269.319 155.997 264.69 151.52 264.69 145.997ZM272.962 135.997C272.962 131.579 269.258 127.997 264.69 127.997C260.122 127.997 256.419 131.579 256.419 135.997C256.419 140.415 260.122 143.997 264.69 143.997C269.258 143.997 272.962 140.415 272.962 135.997ZM314.32 95.9966C314.32 91.5786 310.616 87.9966 306.048 87.9966C301.48 87.9966 297.777 91.5786 297.777 95.9966C297.777 100.415 301.48 103.997 306.048 103.997C310.616 103.997 314.32 100.415 314.32 95.9966Z" fill="black"/>
<path fill-rule="evenodd" clip-rule="evenodd" d="M51.6964 23.9966C45.9859 23.9966 41.3569 19.5196 41.3569 13.9966C41.3569 8.47358 45.9859 3.99658 51.6964 3.99658C57.4069 3.99658 62.0359 8.47358 62.0359 13.9966C67.7464 13.9966 72.3754 18.4736 72.3754 23.9966C72.3754 29.5196 67.7464 33.9966 62.0359 33.9966C56.3254 33.9966 51.6964 29.5196 51.6964 23.9966ZM10.3384 63.9966C4.6279 63.9966 -0.00109863 59.5196 -0.00109863 53.9966C-0.00109863 48.4736 4.6279 43.9966 10.3384 43.9966C16.0489 43.9966 20.6779 48.4736 20.6779 53.9966C26.3884 53.9966 31.0174 58.4736 31.0174 63.9966C31.0174 69.5196 26.3884 73.9966 20.6779 73.9966C14.9674 73.9966 10.3384 69.5196 10.3384 63.9966ZM18.61 53.9966C18.61 49.5786 14.9064 45.9966 10.3384 45.9966C5.77041 45.9966 2.0668 49.5786 2.0668 53.9966C2.0668 58.4146 5.77041 61.9966 10.3384 61.9966C14.9064 61.9966 18.61 58.4146 18.61 53.9966ZM59.968 13.9966C59.968 9.57858 56.2644 5.99658 51.6964 5.99658C47.1284 5.99658 43.4248 9.57858 43.4248 13.9966C43.4248 18.4146 47.1284 21.9966 51.6964 21.9966C56.2644 21.9966 59.968 18.4146 59.968 13.9966Z" fill="black"/>
<path fill-rule="evenodd" clip-rule="evenodd" d="M136.48 23.9966C130.77 23.9966 126.141 19.5196 126.141 13.9966C126.141 8.47358 130.77 3.99658 136.48 3.99658C142.191 3.99658 146.82 8.47358 146.82 13.9966C152.53 13.9966 157.159 18.4736 157.159 23.9966C157.159 29.5196 152.53 33.9966 146.82 33.9966C141.109 33.9966 136.48 29.5196 136.48 23.9966ZM95.1223 63.9966C89.4118 63.9966 84.7828 59.5196 84.7828 53.9966C84.7828 48.4736 89.4118 43.9966 95.1223 43.9966C100.833 43.9966 105.462 48.4736 105.462 53.9966C111.172 53.9966 115.801 58.4736 115.801 63.9966C115.801 69.5196 111.172 73.9966 105.462 73.9966C99.7513 73.9966 95.1223 69.5196 95.1223 63.9966ZM103.394 53.9966C103.394 49.5786 99.6903 45.9966 95.1223 45.9966C90.5543 45.9966 86.8507 49.5786 86.8507 53.9966C86.8507 58.4146 90.5543 61.9966 95.1223 61.9966C99.6903 61.9966 103.394 58.4146 103.394 53.9966ZM144.752 13.9966C144.752 9.57858 141.048 5.99658 136.48 5.99658C131.912 5.99658 128.209 9.57858 128.209 13.9966C128.209 18.4146 131.912 21.9966 136.48 21.9966C141.048 21.9966 144.752 18.4146 144.752 13.9966Z" fill="black"/>
<path fill-rule="evenodd" clip-rule="evenodd" d="M221.264 23.9966C215.554 23.9966 210.925 19.5196 210.925 13.9966C210.925 8.47358 215.554 3.99658 221.264 3.99658C226.975 3.99658 231.604 8.47358 231.604 13.9966C237.314 13.9966 241.943 18.4736 241.943 23.9966C241.943 29.5196 237.314 33.9966 231.604 33.9966C225.893 33.9966 221.264 29.5196 221.264 23.9966ZM179.906 63.9966C174.196 63.9966 169.567 59.5196 169.567 53.9966C169.567 48.4736 174.196 43.9966 179.906 43.9966C185.617 43.9966 190.246 48.4736 190.246 53.9966C195.956 53.9966 200.585 58.4736 200.585 63.9966C200.585 69.5196 195.956 73.9966 190.246 73.9966C184.535 73.9966 179.906 69.5196 179.906 63.9966ZM188.178 53.9966C188.178 49.5786 184.474 45.9966 179.906 45.9966C175.338 45.9966 171.635 49.5786 171.635 53.9966C171.635 58.4146 175.338 61.9966 179.906 61.9966C184.474 61.9966 188.178 58.4146 188.178 53.9966ZM229.536 13.9966C229.536 9.57858 225.832 5.99658 221.264 5.99658C216.696 5.99658 212.993 9.57858 212.993 13.9966C212.993 18.4146 216.696 21.9966 221.264 21.9966C225.832 21.9966 229.536 18.4146 229.536 13.9966Z" fill="black"/>
<path fill-rule="evenodd" clip-rule="evenodd" d="M306.048 23.9966C300.338 23.9966 295.709 19.5196 295.709 13.9966C295.709 8.47358 300.338 3.99658 306.048 3.99658C311.759 3.99658 316.388 8.47358 316.388 13.9966C322.098 13.9966 326.727 18.4736 326.727 23.9966C326.727 29.5196 322.098 33.9966 316.388 33.9966C310.677 33.9966 306.048 29.5196 306.048 23.9966ZM264.69 63.9966C258.98 63.9966 254.351 59.5196 254.351 53.9966C254.351 48.4736 258.98 43.9966 264.69 43.9966C270.401 43.9966 275.03 48.4736 275.03 53.9966C280.74 53.9966 285.369 58.4736 285.369 63.9966C285.369 69.5196 280.74 73.9966 275.03 73.9966C269.319 73.9966 264.69 69.5196 264.69 63.9966ZM272.962 53.9966C272.962 49.5786 269.258 45.9966 264.69 45.9966C260.122 45.9966 256.419 49.5786 256.419 53.9966C256.419 58.4146 260.122 61.9966 264.69 61.9966C269.258 61.9966 272.962 58.4146 272.962 53.9966ZM314.32 13.9966C314.32 9.57858 310.616 5.99658 306.048 5.99658C301.48 5.99658 297.777 9.57858 297.777 13.9966C297.777 18.4146 301.48 21.9966 306.048 21.9966C310.616 21.9966 314.32 18.4146 314.32 13.9966Z" fill="black"/>
</g>
<defs>
<clipPath id="clip0_1_499">
<rect width="566" height="335" fill="white" transform="matrix(0 -1 1 0 -0.00109863 565.997)"/>
</clipPath>
</defs>
</svg>
